<?xml version="1.0" encoding="UTF-8"?>
<svg id="Layer_2" data-name="Layer 2" xmlns="http://www.w3.org/2000/svg" viewBox="0 0 1800.55 293.34">
  <defs>
    <style>
      .cls-1 {
        fill: #171717;
      }

      .cls-1, .cls-2 {
        stroke-width: 0px;
      }

      .cls-2 {
        fill: #46a85c;
      }
    </style>
  </defs>
  <g id="Layer_1-2" data-name="Layer 1">
    <g>
      <g>
        <path class="cls-1" d="m537.56,148.72c0,2.59-1.29,4.35-3.88,5.28-2.59.94-6.18,1.4-10.78,1.4s-8.19-.46-10.78-1.4c-2.59-.93-3.88-2.7-3.88-5.28v-33.42h-37.31c-1.15,5.17-3.2,9.96-6.15,14.34-2.95,4.39-6.61,8.19-11,11.43-4.39,3.23-9.38,5.79-14.99,7.66-5.61,1.87-11.64,2.8-18.11,2.8-7.48,0-14.34-1.22-20.59-3.67-6.25-2.44-11.64-5.79-16.17-10.03-4.53-4.24-8.09-9.17-10.67-14.77s-3.88-11.57-3.88-17.9,1.29-12.29,3.88-17.9,6.15-10.53,10.67-14.77c4.53-4.24,9.92-7.58,16.17-10.03,6.25-2.44,13.12-3.67,20.59-3.67,12.08,0,22.43,2.99,31.05,8.95,8.63,5.97,14.59,13.55,17.9,22.75h38.6v-32.56h29.33v90.78Zm-93.8-43.56c0-2.73-.54-5.39-1.62-7.98s-2.62-4.92-4.64-7.01c-2.01-2.08-4.46-3.77-7.33-5.07-2.88-1.29-6.04-1.94-9.49-1.94s-6.58.65-9.38,1.94c-2.8,1.29-5.21,2.99-7.22,5.07-2.01,2.08-3.56,4.42-4.64,7.01s-1.62,5.25-1.62,7.98.54,5.39,1.62,7.98c1.08,2.59,2.62,4.93,4.64,7.01,2.01,2.09,4.42,3.77,7.22,5.07,2.8,1.29,5.93,1.94,9.38,1.94s6.61-.65,9.49-1.94c2.87-1.29,5.32-2.98,7.33-5.07,2.01-2.08,3.56-4.42,4.64-7.01,1.08-2.59,1.62-5.25,1.62-7.98Zm-11.64,151.38c-2.45,0-4.93-.75-7.44-2.26-2.52-1.51-4.78-3.27-6.79-5.28-2.45-2.45-4.5-4.85-6.15-7.22-1.65-2.37-2.48-4.57-2.48-6.58v-36.87h96.82v-12.08h-96.82v-22.86h117.09c3.45,0,5.82.54,7.12,1.62s1.94,3.27,1.94,6.58v49.17h-96.82v7.98c0,1.29.36,2.44,1.08,3.45.72,1,2.01,1.51,3.88,1.51h93.16c2.3,0,3.74,1.08,4.31,3.23.57,2.16.86,4.89.86,8.19,0,3.74-.29,6.58-.86,8.52-.58,1.94-2.01,2.91-4.31,2.91h-104.59Z"/>
        <path class="cls-1" d="m745.01,123.92c2.44,0,4.06.83,4.85,2.48.79,1.65,1.19,4.57,1.19,8.73s-.4,7.04-1.19,8.62c-.79,1.58-2.41,2.37-4.85,2.37h-72.67v21.13h41.83c3.3,0,5.64.65,7.01,1.94,1.37,1.29,2.05,3.52,2.05,6.68v46.58h-102.43v8.84c0,2.16,1,3.23,3.02,3.23h98.98c2.3,0,3.74.9,4.31,2.7.57,1.8.86,4.56.86,8.3s-.29,6.5-.86,8.3c-.58,1.8-2.02,2.7-4.31,2.7h-108.47c-2.45,0-4.93-.75-7.44-2.26-2.52-1.51-4.78-3.27-6.79-5.28-2.45-2.45-4.49-4.85-6.15-7.22-1.65-2.37-2.48-4.57-2.48-6.58v-34.29h102.43v-11.64h-102.43v-22h51.11v-21.13h-76.77v-22.21h125.29v-35.8c0-2.01-.4-3.31-1.19-3.88-.79-.57-1.98-.86-3.56-.86h-94.23v-23.5h100.92c2.87,0,6.04,1.04,9.49,3.13,3.45,2.09,6.39,4.35,8.84,6.79,2.3,2.3,4.38,4.93,6.25,7.87,1.87,2.95,2.8,5.5,2.8,7.66v38.6h24.58Z"/>
        <path class="cls-1" d="m819.4,163.17c-7.33,0-14.23-1.29-20.7-3.88-6.47-2.59-12.11-6.15-16.93-10.67-4.82-4.53-8.63-9.85-11.43-15.96-2.8-6.11-4.21-12.61-4.21-19.51s1.4-13.4,4.21-19.52c2.8-6.11,6.61-11.43,11.43-15.96,4.81-4.53,10.46-8.12,16.93-10.78,6.47-2.66,13.37-3.99,20.7-3.99s14.23,1.33,20.7,3.99c6.47,2.66,12.11,6.25,16.93,10.78,4.81,4.53,8.59,9.85,11.32,15.96,2.73,6.11,4.1,12.62,4.1,19.52s-1.37,13.41-4.1,19.51c-2.73,6.11-6.51,11.43-11.32,15.96-4.82,4.53-10.46,8.09-16.93,10.67-6.47,2.59-13.37,3.88-20.7,3.88Zm0-75.69c-3.88,0-7.33.68-10.35,2.05-3.02,1.37-5.61,3.24-7.76,5.61-2.16,2.37-3.81,5.1-4.96,8.19-1.15,3.09-1.73,6.36-1.73,9.81s.57,6.72,1.73,9.81c1.15,3.09,2.8,5.79,4.96,8.09,2.16,2.3,4.74,4.13,7.76,5.5,3.02,1.37,6.47,2.05,10.35,2.05s7.33-.68,10.35-2.05c3.02-1.36,5.57-3.2,7.66-5.5,2.08-2.3,3.7-4.99,4.85-8.09,1.15-3.09,1.72-6.36,1.72-9.81s-.58-6.72-1.72-9.81c-1.15-3.09-2.77-5.82-4.85-8.19-2.08-2.37-4.64-4.24-7.66-5.61-3.02-1.36-6.47-2.05-10.35-2.05Zm111.49,142.54c2.44,0,3.99,1.11,4.64,3.34.65,2.23.97,5.21.97,8.95,0,4.02-.32,7.04-.97,9.06-.65,2.01-2.19,3.02-4.64,3.02h-97.69c-2.88,0-6-1.04-9.38-3.13-3.38-2.09-6.22-4.35-8.52-6.79-2.45-2.3-4.57-4.93-6.36-7.87-1.8-2.95-2.7-5.43-2.7-7.44v-45.93h29.33v42.05c0,3.16,1.65,4.74,4.96,4.74h90.35Zm1.29-40.97c0,2.88-1.44,4.67-4.31,5.39-2.88.72-6.33,1.08-10.35,1.08-4.6,0-8.19-.46-10.78-1.4-2.59-.93-3.88-2.62-3.88-5.07V57.93h29.33v131.11Z"/>
        <path class="cls-1" d="m1053.58,158.21c-2.88-2.44-5.86-5.21-8.95-8.3-3.09-3.09-6.18-6.36-9.27-9.81-3.09-3.45-6.04-7.04-8.84-10.78-2.8-3.74-5.21-7.47-7.22-11.21-2.45,4.03-5.17,8.09-8.19,12.18-3.02,4.1-6.15,8.09-9.38,11.97-3.23,3.88-6.54,7.48-9.92,10.78-3.38,3.31-6.65,6.25-9.81,8.84-2.01,1.72-4.13,2.3-6.36,1.72-2.23-.57-5.07-2.66-8.52-6.25-1.73-1.73-3.16-3.23-4.31-4.53-1.15-1.29-1.94-2.48-2.37-3.56-.43-1.08-.43-2.12,0-3.13.43-1,1.29-2.16,2.59-3.45,7.19-6.47,13.69-13.05,19.52-19.73,5.82-6.69,10.38-12.97,13.69-18.87,2.59-4.74,4.31-8.95,5.18-12.61.86-3.67,1.29-8.09,1.29-13.26v-16.39h30.62v16.39c0,3.31.36,6.76,1.08,10.35.72,3.59,1.87,6.97,3.45,10.13,1.87,3.59,4.17,7.26,6.9,11,2.73,3.74,5.61,7.41,8.63,11,3.02,3.6,6.07,6.97,9.17,10.14,3.09,3.16,5.93,5.9,8.52,8.19,2.01,2.02,2.84,4.03,2.48,6.04-.36,2.02-2.26,4.89-5.71,8.63-3.31,3.59-5.97,5.75-7.98,6.47-2.02.72-4.1.07-6.25-1.94Zm41.19,43.99h-99.63v-24.37h117.74c3.74,0,6.54.9,8.41,2.7,1.87,1.8,2.8,5,2.8,9.6v62.1c0,2.87-1.44,4.6-4.31,5.17-2.88.57-6.33.86-10.35.86-4.6,0-8.19-.36-10.78-1.08-2.59-.72-3.88-2.37-3.88-4.96v-50.03Zm31.48-40.11c0,2.88-1.44,4.67-4.31,5.39-2.88.72-6.33,1.08-10.35,1.08-4.6,0-8.19-.46-10.78-1.4-2.59-.93-3.88-2.62-3.88-5.07V57.93h29.33v104.15Z"/>
        <path class="cls-1" d="m1399.9,142.68c2.44,0,4.06.79,4.85,2.35.79,1.57,1.19,4.41,1.19,8.54s-.4,6.94-1.19,8.43c-.79,1.5-2.41,2.24-4.85,2.24h-72.67v11.43h41.83c3.3,0,5.64.68,7.01,2.05,1.37,1.37,2.05,3.63,2.05,6.79v41.4h-102.43v6.25c0,2.16,1,3.23,3.02,3.23h98.98c2.3,0,3.74.93,4.31,2.8.57,1.87.86,4.45.86,7.76,0,3.74-.29,6.43-.86,8.09-.58,1.65-2.02,2.48-4.31,2.48h-108.47c-2.45,0-4.93-.75-7.44-2.26-2.52-1.51-4.78-3.27-6.79-5.28-2.45-2.45-4.49-4.85-6.15-7.22-1.65-2.37-2.48-4.57-2.48-6.58v-29.97h102.43v-8.41h-102.43v-21.13h51.11v-11.43h-76.77v-21.56h179.2Zm-155.26-55.63v-22.86h53.26v-14.02h28.68v14.02h49.81c2.44,0,4.02.86,4.74,2.59.72,1.73,1.08,4.6,1.08,8.63s-.36,7.15-1.08,8.95c-.72,1.8-2.3,2.7-4.74,2.7h-47.01c2.3,2.88,5.64,5.61,10.03,8.19,4.38,2.59,9.16,5.03,14.34,7.33,5.17,2.3,10.35,4.35,15.53,6.15,5.17,1.8,9.63,3.27,13.37,4.42,1,.29,1.73.65,2.16,1.08.43.43.61,1.08.54,1.94-.07.86-.4,2.05-.97,3.56-.58,1.51-1.37,3.49-2.37,5.93-.86,2.3-1.65,4.1-2.37,5.39-.72,1.29-1.4,2.19-2.05,2.7-.65.5-1.37.75-2.16.75s-1.76-.21-2.91-.65c-4.17-1.44-8.84-3.02-14.02-4.74-5.18-1.73-10.5-3.77-15.96-6.15-5.46-2.37-10.78-5.1-15.96-8.19-5.18-3.09-9.78-6.65-13.8-10.67-4.17,3.88-9.09,7.48-14.77,10.78-5.68,3.31-11.4,6.25-17.14,8.84-5.75,2.59-11.11,4.82-16.07,6.68-4.96,1.87-8.81,3.23-11.54,4.1-1.15.43-2.16.72-3.02.86-.86.14-1.65-.07-2.37-.65-.72-.57-1.48-1.54-2.26-2.91-.79-1.36-1.69-3.48-2.7-6.36-1.73-4.6-2.8-7.8-3.24-9.6-.43-1.8.5-3.05,2.8-3.77,3.45-1,7.58-2.41,12.4-4.21,4.81-1.8,9.74-3.81,14.77-6.04,5.03-2.23,9.74-4.6,14.12-7.12,4.38-2.51,7.87-5.07,10.46-7.66h-49.6Z"/>
        <path class="cls-1" d="m1512.25,158.21c-2.88-2.44-5.86-5.21-8.95-8.3-3.09-3.09-6.18-6.36-9.27-9.81-3.09-3.45-6.04-7.04-8.84-10.78-2.8-3.74-5.21-7.47-7.22-11.21-2.45,4.03-5.18,8.09-8.19,12.18-3.02,4.1-6.15,8.09-9.38,11.97-3.24,3.88-6.54,7.48-9.92,10.78-3.38,3.31-6.65,6.25-9.81,8.84-2.01,1.72-4.13,2.3-6.36,1.72-2.23-.57-5.07-2.66-8.52-6.25-1.73-1.73-3.16-3.23-4.31-4.53-1.15-1.29-1.94-2.48-2.37-3.56-.43-1.08-.43-2.12,0-3.13.43-1,1.29-2.16,2.59-3.45,7.19-6.47,13.69-13.05,19.52-19.73,5.82-6.69,10.38-12.97,13.69-18.87,2.59-4.74,4.31-8.95,5.17-12.61.86-3.67,1.29-8.09,1.29-13.26v-16.39h30.62v16.39c0,3.31.36,6.76,1.08,10.35.72,3.59,1.87,6.97,3.45,10.13,1.87,3.59,4.17,7.26,6.9,11,2.73,3.74,5.61,7.41,8.63,11,3.02,3.6,6.07,6.97,9.17,10.14,3.09,3.16,5.93,5.9,8.52,8.19,2.01,2.02,2.84,4.03,2.48,6.04-.36,2.02-2.26,4.89-5.71,8.63-3.31,3.59-5.97,5.75-7.98,6.47-2.01.72-4.1.07-6.25-1.94Zm43.34,43.99h-99.63v-24.37h117.74c3.74,0,6.54.9,8.41,2.7,1.87,1.8,2.8,5,2.8,9.6v62.1c0,2.87-1.44,4.6-4.31,5.17-2.88.57-6.33.86-10.35.86-4.6,0-8.19-.36-10.78-1.08-2.59-.72-3.88-2.37-3.88-4.96v-50.03Zm31.48-40.11c0,2.88-1.44,4.67-4.31,5.39-2.88.72-6.33,1.08-10.35,1.08-4.6,0-8.19-.46-10.78-1.4-2.59-.93-3.88-2.62-3.88-5.07v-47.01h-38.38v-24.8h38.38v-32.35h29.33v104.15Z"/>
        <path class="cls-1" d="m1793.87,171.58c2.87,0,4.71,1.08,5.5,3.23.79,2.16,1.19,5.32,1.19,9.49s-.4,7.3-1.19,9.38c-.79,2.09-2.62,3.13-5.5,3.13h-72.02v46.15c0,2.44-1.29,4.1-3.88,4.96-2.59.86-6.33,1.29-11.21,1.29-4.6,0-8.19-.4-10.78-1.19-2.59-.79-3.88-2.41-3.88-4.85v-46.36h-76.77v-25.23h178.55Zm-21.13-107.6v71.38c0,5.03-1.22,9.02-3.67,11.97-2.45,2.95-6.25,4.42-11.43,4.42h-89.71c-1.29,0-2.7-.32-4.21-.97-1.51-.65-3.09-1.44-4.74-2.37-1.65-.93-3.24-2.01-4.74-3.23-1.51-1.22-2.84-2.48-3.99-3.77-2.16-2.16-4.24-4.6-6.25-7.33-2.01-2.73-3.02-5.32-3.02-7.76v-62.32h29.76v20.27h72.24v-20.27h29.76Zm-29.76,62.97v-17.9h-72.24v13.37c0,3.02,1.37,4.53,4.1,4.53h68.14Z"/>
      </g>
      <g>
        <path class="cls-2" d="m40,113.34H0v-46.65C0,29.92,29.92,0,66.7,0h46.65v40h-46.65c-14.72,0-26.7,11.98-26.7,26.7v46.65Z"/>
        <path class="cls-2" d="m113.34,293.34h-46.65C29.92,293.34,0,263.42,0,226.65v-46.65h40v46.65c0,14.72,11.98,26.7,26.7,26.7h46.65v40Z"/>
        <path class="cls-2" d="m226.65,293.34h-46.65v-40h46.65c14.72,0,26.7-11.98,26.7-26.7v-46.65h40v46.65c0,36.78-29.92,66.7-66.7,66.7Z"/>
        <path class="cls-2" d="m293.34,113.34h-40v-46.65c0-14.72-11.98-26.7-26.7-26.7h-46.65V0h46.65c36.78,0,66.7,29.92,66.7,66.7v46.65Z"/>
        <circle class="cls-2" cx="90.11" cy="99.96" r="23.43"/>
        <path class="cls-2" d="m150.41,220.31c-12.25,0-27.11-2.35-34.92-12.33-3.23-4.13-7.89-12.98-2.76-25.83,8.7-21.75,16.65-43.37,16.73-43.59l29.1,10.69c-.07.2-7.05,19.16-15.13,39.6,4.72.56,11.69.5,17.59-.3l4.23,30.71c-3.62.5-8.93,1.05-14.85,1.05Z"/>
        <path class="cls-2" d="m174.34,110.03l25.12,14.5c6.71,3.87,15.1-.97,15.1-8.72v-29c0-7.75-8.39-12.59-15.1-8.72l-25.12,14.5c-6.71,3.87-6.71,13.56,0,17.43Z"/>
      </g>
    </g>
  </g>
</svg>