<?xml version="1.0" encoding="UTF-8"?>
<svg id="Layer_2" data-name="Layer 2" xmlns="http://www.w3.org/2000/svg" viewBox="0 0 293.34 293.34">
  <defs>
    <style>
      .cls-1 {
        fill: #46a85c;
        stroke-width: 0px;
      }
    </style>
  </defs>
  <g id="Layer_1-2" data-name="Layer 1">
    <g>
      <path class="cls-1" d="m40,113.34H0v-46.65C0,29.92,29.92,0,66.7,0h46.65v40h-46.65c-14.72,0-26.7,11.98-26.7,26.7v46.65Z"/>
      <path class="cls-1" d="m113.34,293.34h-46.65C29.92,293.34,0,263.42,0,226.65v-46.65h40v46.65c0,14.72,11.98,26.7,26.7,26.7h46.65v40Z"/>
      <path class="cls-1" d="m226.65,293.34h-46.65v-40h46.65c14.72,0,26.7-11.98,26.7-26.7v-46.65h40v46.65c0,36.78-29.92,66.7-66.7,66.7Z"/>
      <path class="cls-1" d="m293.34,113.34h-40v-46.65c0-14.72-11.98-26.7-26.7-26.7h-46.65V0h46.65c36.78,0,66.7,29.92,66.7,66.7v46.65Z"/>
      <circle class="cls-1" cx="90.11" cy="99.96" r="23.43"/>
      <path class="cls-1" d="m150.41,220.31c-12.25,0-27.11-2.35-34.92-12.33-3.23-4.13-7.89-12.98-2.76-25.83,8.7-21.75,16.65-43.37,16.73-43.59l29.1,10.69c-.07.2-7.05,19.16-15.13,39.6,4.72.56,11.69.5,17.59-.3l4.23,30.71c-3.62.5-8.93,1.05-14.85,1.05Z"/>
      <path class="cls-1" d="m174.34,110.03l25.12,14.5c6.71,3.87,15.1-.97,15.1-8.72v-29c0-7.75-8.39-12.59-15.1-8.72l-25.12,14.5c-6.71,3.87-6.71,13.56,0,17.43Z"/>
    </g>
  </g>
</svg>